<svg xmlns="http://www.w3.org/2000/svg" xmlns:xlink="http://www.w3.org/1999/xlink" width="154.799" height="24" viewBox="0 0 154.799 24">
  <defs>
    <clipPath id="clip-path">
      <rect id="Rectangle_467" data-name="Rectangle 467" width="154.799" height="24" fill="#5b5b5b"/>
    </clipPath>
  </defs>
  <g id="anandabazar-online" transform="translate(-0.8 -0.8)">
    <g id="Group_3" transform="translate(0.8 0.8)" clip-path="url(#clip-path)">
      <path id="Path_4" d="M88.525,20.094a1.668,1.668,0,0,0-.831,3.231,1.734,1.734,0,0,0,1.938-.923,1.9,1.9,0,0,0-1.108-2.308" transform="translate(-7.387 -2.279)" fill="#5b5b5b"/>
      <path id="Path_5" d="M76.215,7.53a4.181,4.181,0,0,1-.277-1.477c-.092-.646-.554-.554-.554-.554-.369.092-.369.554-.369.554l-.092,4.523-.554-.923a11.063,11.063,0,0,0-1.015-1.108,2.348,2.348,0,0,0-1.569-.369H59.046a1.4,1.4,0,0,1-1.292-.646,9.657,9.657,0,0,1-.369-1.569c-.092-.185-.092-.462-.462-.462s-.369.554-.369.554l-.092,4.523-.369-.554A6.97,6.97,0,0,0,55.076,8.73a1.942,1.942,0,0,0-1.385-.462H21.108a1.309,1.309,0,0,1-1.385-1.108h0a3.786,3.786,0,0,1-.092-1.015c-.092-.462-.369-.554-.369-.554-.554-.185-.554.462-.554.462l-.092,4.523a10.077,10.077,0,0,0-1.2-1.569,3.879,3.879,0,0,0-2.4-.738H.8v2.215H7.723c.277.092.277.277.277.277a3.217,3.217,0,0,0-1.569.554A2.334,2.334,0,0,0,5.6,14.176a2.077,2.077,0,0,0,2.031,1.477,1.524,1.524,0,0,0,1.385-.462c1.292-.923.738-2.769.738-2.769a1.228,1.228,0,0,1,.738.277,2.324,2.324,0,0,1,.831,1.846,2.949,2.949,0,0,1-1.015,2.215,3.228,3.228,0,0,1-4.246-.092,18.829,18.829,0,0,1-3.692-5.077c-.277-.831-.554-.738-.554-.738-.738.092-.369.831-.369.831L1.908,12.7C3.754,17.038,5.6,18.607,5.6,18.607c3.969,3.692,6.461-.277,6.461-.277A7.625,7.625,0,0,1,14,20.915a6.963,6.963,0,0,1,.738,2.215c0,1.108.646.923.646.923.462,0,.369-.923.369-.923V10.392a2.832,2.832,0,0,1,1.938.554,3,3,0,0,1,.923,2.123l-.185,9.138,2.123,2.215-.092-14.031h7.477l-.185,4.985a9.883,9.883,0,0,0-1.385-2.031A2.948,2.948,0,0,0,23.6,12.238a3.271,3.271,0,0,0-2.4,3.231c0,3.415,2.585,3.415,2.585,3.415,2.769-.185,2.308-3.046,2.308-3.046a6.641,6.641,0,0,1,1.938,2.677,14.823,14.823,0,0,1,.923,4.892.576.576,0,0,0,.554.646c.462,0,.369-.646.369-.646V10.392h6.369v3.323L35.692,12.7a2.962,2.962,0,0,0-2.769-1.569,2.349,2.349,0,0,0-1.938,2.031c-.369,2.677,1.477,3.138,1.477,3.138a1.92,1.92,0,0,0,2.4-1.108V15.1a1.573,1.573,0,0,0,0-1.292,2.447,2.447,0,0,1,.554.462,4.871,4.871,0,0,1,.738,2.031,3.415,3.415,0,0,1-.646,2.492.326.326,0,0,0,.092.462,7.815,7.815,0,0,0,1.754,1.292c.554.185.554-.185.554-.185L38,20.176a9.846,9.846,0,0,1,2.492-3.323c-1.108,4.615,1.569,7.015,1.569,7.015.277.369.554.277.554.277a.444.444,0,0,0,.185-.554.09.09,0,0,0-.092-.092A8.843,8.843,0,0,1,41.6,20.546a6.553,6.553,0,0,1,.646-3.231A17.32,17.32,0,0,1,43.907,15.1c.092-.092.185-.369.092-.462a8.085,8.085,0,0,0-1.754-2.215.322.322,0,0,0-.185-.092A14.784,14.784,0,0,0,38.184,15.1V10.484H51.477v.277c-5.354,2.585-6.738,4.062-6.738,4.062l1.754,2.862c5.723.185,6.092,5.908,6.092,5.908.092.646.462.554.462.554.462,0,.369-.738.369-.738V10.392a2.743,2.743,0,0,1,2.862,2.492l-.185,9.6,2.031,2.031V10.392h4.8a5.168,5.168,0,0,0-1.2,3.231c.277,1.385.369,2.492,1.754,3.415a2.5,2.5,0,0,0,3.508-.462c.092-.092.092-.185.185-.185-.092,1.938-.831,2.862-2.123,2.954s-1.846-.277-2.862-1.662-1.938-5.169-2.031-6-.646-.831-.646-.831c-.369,0-.277.646-.277.646a42.525,42.525,0,0,0,1.477,5.908c1.477,4.431,3.138,4.8,3.877,4.985,1.846.277,2.954-.646,3.692-2.492a6.588,6.588,0,0,0-.462-5.723c-1.015-1.292-1.846-1.108-1.846-1.108l-.369.369c-.092,1.477-1.108,1.385-1.108,1.385-1.385,0-.554-1.754-.554-1.754a5.869,5.869,0,0,1,2.215-2.031,4.436,4.436,0,0,0,1.569,2.123,3.658,3.658,0,0,0,2.123,1.108c-1.662,3.969.646,9.046.646,9.046.277.831.831.738.831.738.554-.185,0-1.2,0-1.2-2.585-6.277,2.031-9.138,2.031-9.138a6,6,0,0,0-1.938-2.585.716.716,0,0,0-.923.185.09.09,0,0,1-.092.092c-.369,1.108-1.662.646-1.662.646-1.754-.462-1.846-1.754-1.846-1.754h5.169a2.869,2.869,0,0,1,2.769,2.492l-.185,9.6,2.031,2.031V10.392h7.569v.277c-5.354,2.585-6.738,4.062-6.738,4.062l1.754,2.862c5.723.185,6.092,5.908,6.092,5.908.092.646.462.554.462.554.462,0,.369-.738.369-.738V10.392h1.662V8.269H77.507c-1.2,0-1.292-.738-1.292-.738M13.631,18.238c-.369-.554-.738-1.108-1.108-1.569a4.848,4.848,0,0,0-.738-4.062,3.97,3.97,0,0,0-2.215-1.662c-.092-.185-.092-.277-.185-.462h4.431Zm37.846-.277a25.153,25.153,0,0,0-2.308-2.123l-.831-.554a34.995,34.995,0,0,1,3.138-1.846Zm32.677,0a25.154,25.154,0,0,0-2.308-2.123l-.831-.554a34.994,34.994,0,0,1,3.138-1.846Z" transform="translate(-0.8 -1.161)" fill="#5b5b5b"/>
      <path id="Path_6" d="M145.477,10.49V8.274h-.092a1.168,1.168,0,0,1-1.292-1.108A3.786,3.786,0,0,1,144,6.151c-.092-.462-.369-.554-.369-.554-.554-.185-.554.462-.554.462l-.185,4.431a18.72,18.72,0,0,0-1.2-1.662,2.461,2.461,0,0,0-1.292-.646v2.4a3.954,3.954,0,0,1,1.477.462,3,3,0,0,1,.923,2.123l-.185,9.046,2.123,2.215-.092-13.938Z" transform="translate(-11.54 -1.167)" fill="#5b5b5b"/>
      <path id="Path_7" d="M123.531,10.715H125.1V8.5h-12v2.123h8.492l-.092,4.985a9.883,9.883,0,0,0-1.385-2.031,2.948,2.948,0,0,0-2.769-1.108,3.271,3.271,0,0,0-2.4,3.231c0,3.415,2.585,3.415,2.585,3.415,2.769-.185,2.308-3.046,2.308-3.046a6.641,6.641,0,0,1,1.938,2.677,14.823,14.823,0,0,1,.923,4.892.576.576,0,0,0,.554.646c.462,0,.369-.646.369-.646Z" transform="translate(-9.439 -1.392)" fill="#5b5b5b"/>
      <path id="Path_8" d="M166.185,10.715h1.569V8.5h-9.877v2.123h6.369l-.092,4.985a9.882,9.882,0,0,0-1.385-2.031A2.948,2.948,0,0,0,160,12.469a3.271,3.271,0,0,0-2.4,3.231c0,3.415,2.585,3.415,2.585,3.415,2.769-.185,2.308-3.046,2.308-3.046a6.641,6.641,0,0,1,1.938,2.677,14.823,14.823,0,0,1,.923,4.892.576.576,0,0,0,.554.646c.462,0,.369-.646.369-.646Z" transform="translate(-12.863 -1.392)" fill="#5b5b5b"/>
      <path id="Path_9" d="M112.761,10.72h.185V8.6a3.077,3.077,0,0,0-.923,0H97.9v2.215h6.923c.277.092.277.277.277.277a3.217,3.217,0,0,0-1.569.554A2.334,2.334,0,0,0,102.7,14.5a2.077,2.077,0,0,0,2.031,1.477,1.524,1.524,0,0,0,1.385-.462c1.292-.923.738-2.769.738-2.769a1.228,1.228,0,0,1,.738.277,2.324,2.324,0,0,1,.831,1.846,2.949,2.949,0,0,1-1.015,2.215A3.228,3.228,0,0,1,103.162,17a18.829,18.829,0,0,1-3.692-5.077c-.277-.831-.554-.738-.554-.738-.738.092-.369.831-.369.831l.462,1.015c1.846,4.338,3.692,5.908,3.692,5.908,3.969,3.692,6.461-.277,6.461-.277a7.625,7.625,0,0,1,1.938,2.585,6.963,6.963,0,0,1,.738,2.215c0,1.108.646.923.646.923.462,0,.369-.923.369-.923Zm-2.031,7.846c-.369-.554-.738-1.108-1.108-1.569a4.848,4.848,0,0,0-.738-4.062,3.97,3.97,0,0,0-2.215-1.662c-.092-.185-.092-.277-.185-.462h4.431Z" transform="translate(-8.27 -1.397)" fill="#5b5b5b"/>
      <path id="Path_10" d="M134.608,10.715h4.061V8.5H126.3v2.123l8.308.092h0" transform="translate(-10.455 -1.392)" fill="#5b5b5b"/>
      <path id="Path_11" d="M157.469,8.5H145.1v2.215h4.431a.922.922,0,0,1,.462.369.48.48,0,0,1,.185.369,4.577,4.577,0,0,0-1.846.738,2.607,2.607,0,0,0-1.2,2.4,2.554,2.554,0,0,0,.462,1.477,1.822,1.822,0,0,0,1.292.554,2.324,2.324,0,0,0,1.846-.831,3.226,3.226,0,0,0,.738-2.031,1.861,1.861,0,0,1,1.015-.277.9.9,0,0,1,.831.369,1.56,1.56,0,0,1,.277.923,3.086,3.086,0,0,1-1.385,2.308,4.707,4.707,0,0,1-2.862,1.015,2.618,2.618,0,0,1-1.2-.369c-.369-.185-.831-.369-1.2-.554-.185-.092-.462-.369-.646-.185s0,.554,0,.554l2.031,3.692h.185a7.333,7.333,0,0,1,2.031-.554c.462-.092,1.015-.092,1.477-.185h0l-.092-.092a4.515,4.515,0,0,0,2.308-1.569,4.963,4.963,0,0,0,.923-3.046,4.662,4.662,0,0,0-1.385-3.6,4.067,4.067,0,0,0-2.308-1.015c0-.185-.092-.462-.092-.646h6Z" transform="translate(-11.901 -1.392)" fill="#5b5b5b"/>
      <path id="Path_12" d="M148.637,6.887a18.19,18.19,0,0,0,1.938-.092,10.894,10.894,0,0,1,1.477-.092,1.081,1.081,0,0,1,1.015.462.706.706,0,0,1-.185.831h1.662a5.622,5.622,0,0,0-1.2-2.862A3.748,3.748,0,0,0,150.3,4.118c-.092,0-.369,0-1.292.092a16.312,16.312,0,0,1-1.754.092,2.709,2.709,0,0,1-1.477-.369,1.1,1.1,0,0,1-.369-1.015c0-.185.092-.277.092-.462.092-.185.185-.277.277-.462l.185-.185a.6.6,0,0,0,.185-.738c0-.092-.092-.092-.185-.185-.554-.462-1.015.277-1.015.277l-.092.185a3.742,3.742,0,0,0-.462.831A3.786,3.786,0,0,0,144.3,3.2a3.18,3.18,0,0,0,1.015,2.677,4.761,4.761,0,0,0,3.323,1.015" transform="translate(-11.838 -0.795)" fill="#5b5b5b"/>
      <path id="Path_13" d="M148.9,22.215a13.619,13.619,0,0,1,7.754,3.508s.554.646.831.646c.554,0,.369-.646-.831-2.031a9.847,9.847,0,0,0-3.415-2.769L152.5,21.2l-1.385.092Z" transform="translate(-12.193 -2.369)" fill="#5b5b5b"/>
      <path id="Path_14" d="M145.442,3.2a.761.761,0,0,1,.646-.923.66.66,0,0,0,.462-.831.921.921,0,0,0-.369-.462.908.908,0,0,0-1.292.277l-.092.092c-.277.554.646,1.846.646,1.846" transform="translate(-11.874 -0.802)" fill="#5b5b5b"/>
      <path id="Path_15" d="M139.131,10.808V8.5H122.7l1.662,2.215h12.185l.092,2.954v.554a6.064,6.064,0,0,0-1.108-1.569,1.963,1.963,0,0,0-1.385-.646,1.755,1.755,0,0,0-1.2.462,5.233,5.233,0,0,0-.738,1.2,4.518,4.518,0,0,0-1.108-1.2,2.765,2.765,0,0,0-1.662-.554,3.908,3.908,0,0,0-2.769,1.108,3.982,3.982,0,0,0-1.292,2.954,4.59,4.59,0,0,0,1.292,3.323,4.049,4.049,0,0,0,3.138,1.292,3.146,3.146,0,0,0,2.031-.646,2.113,2.113,0,0,0,.738-1.569,2.765,2.765,0,0,0-.554-1.662,1.9,1.9,0,0,0-1.569-.646,2.263,2.263,0,0,0-1.477.554,1.822,1.822,0,0,0-.554,1.292,1.711,1.711,0,0,0,.185.646,1.275,1.275,0,0,0,.277.369,1.136,1.136,0,0,1-.923-.462,2.205,2.205,0,0,1-.462-1.292,2.324,2.324,0,0,1,.831-1.846,2.979,2.979,0,0,1,1.938-.738,3.761,3.761,0,0,1,1.662.462,2.836,2.836,0,0,1,.923,1.385v.092l1.108.738-.092-.831a.555.555,0,0,0-.092-.369,2.458,2.458,0,0,1,.277-1.108.909.909,0,0,1,1.385-.092,3.872,3.872,0,0,1,.831,1.292v6l2.4,2.492-.277-13.846Z" transform="translate(-10.178 -1.392)" fill="#5b5b5b"/>
    </g>
  </g>
</svg>
