<svg xmlns="http://www.w3.org/2000/svg" xmlns:xlink="http://www.w3.org/1999/xlink" width="117.17" height="40" viewBox="0 0 117.17 40">
  <defs>
    <clipPath id="clip-path">
      <rect id="Rectangle_289" data-name="Rectangle 289" width="117.17" height="40" fill="none"/>
    </clipPath>
  </defs>
  <g id="apple_store" data-name="apple store" opacity="0.6">
    <g id="Group_384" data-name="Group 384" transform="translate(0 0)" clip-path="url(#clip-path)">
      <path id="Path_393" data-name="Path 393" d="M117.163,8.444c0-.306,0-.614,0-.921a14.018,14.018,0,0,0-.182-2,6.709,6.709,0,0,0-.607-1.9A6.416,6.416,0,0,0,115.215,2,6.326,6.326,0,0,0,113.63.818a6.518,6.518,0,0,0-1.868-.627A12.7,12.7,0,0,0,109.8.014c-.3,0-.6-.011-.9-.012-.352,0-.711,0-1.063,0H9.336c-.359,0-.714,0-1.071,0-.3,0-.6.009-.9.012A12.864,12.864,0,0,0,5.4.191,6.406,6.406,0,0,0,3.541.818,6.335,6.335,0,0,0,1.955,2,6.236,6.236,0,0,0,.8,3.618a6.666,6.666,0,0,0-.612,1.9,13.354,13.354,0,0,0-.175,2c-.01.306-.01.615-.016.921V31.557c.005.312.005.613.016.924a13.37,13.37,0,0,0,.175,2,6.679,6.679,0,0,0,.612,1.9A6.38,6.38,0,0,0,3.541,39.18a6.41,6.41,0,0,0,1.861.628,12.868,12.868,0,0,0,1.961.179c.3.007.6.011.9.011.357,0,.712,0,1.071,0h98.5c.352,0,.711,0,1.063,0,.3,0,.6,0,.9-.011a12.7,12.7,0,0,0,1.957-.179,6.523,6.523,0,0,0,1.868-.628A6.2,6.2,0,0,0,115.215,38a6.379,6.379,0,0,0,1.156-1.614,6.723,6.723,0,0,0,.607-1.9,14.035,14.035,0,0,0,.182-2c0-.312,0-.613,0-.924.007-.363.007-.724.007-1.092V9.536c0-.366,0-.729-.007-1.092m-.848,22.021c0,.363,0,.717-.007,1.075,0,.326,0,.623-.005.929a12.958,12.958,0,0,1-.167,1.854,5.86,5.86,0,0,1-.529,1.669,5.442,5.442,0,0,1-1,1.386,5.225,5.225,0,0,1-1.369,1.021,5.607,5.607,0,0,1-1.633.551,11.992,11.992,0,0,1-1.832.164c-.286.007-.586.011-.877.011l-1.063,0-99.571,0c-.3,0-.589,0-.884-.011a12.105,12.105,0,0,1-1.83-.164A5.641,5.641,0,0,1,3.931,38.4,5.554,5.554,0,0,1,1.563,35.99a5.836,5.836,0,0,1-.531-1.657,12.869,12.869,0,0,1-.165-1.875c-.005-.21-.014-.915-.014-.915V8.444s.009-.692.014-.894a12.868,12.868,0,0,1,.163-1.873,5.758,5.758,0,0,1,.532-1.66,5.339,5.339,0,0,1,.995-1.4A5.389,5.389,0,0,1,3.931,1.595,5.615,5.615,0,0,1,5.55,1.051,11.981,11.981,0,0,1,7.386.887L8.268.874H108.9l.894.012a11.987,11.987,0,0,1,1.82.163,5.722,5.722,0,0,1,1.635.547,5.428,5.428,0,0,1,1.364,1.018,5.538,5.538,0,0,1,1,1.4,5.859,5.859,0,0,1,.525,1.648,13.413,13.413,0,0,1,.17,1.887c0,.283,0,.588,0,.89.007.374.007.733.007,1.092Z" transform="translate(0 0)"/>
      <path id="Path_394" data-name="Path 394" d="M36.858,36.76a5.154,5.154,0,0,1,2.4-4.316A5.121,5.121,0,0,0,35.194,30.2c-1.711-.184-3.368,1.046-4.238,1.046-.889,0-2.231-1.027-3.674-1a5.4,5.4,0,0,0-4.556,2.838c-1.969,3.482-.5,8.6,1.387,11.413.943,1.377,2.047,2.919,3.489,2.862,1.413-.058,1.94-.919,3.646-.919,1.688,0,2.184.919,3.658.885,1.515-.025,2.468-1.384,3.38-2.776a11.512,11.512,0,0,0,1.546-3.215,4.962,4.962,0,0,1-2.973-4.576" transform="translate(-12.382 -16.872)"/>
      <path id="Path_395" data-name="Path 395" d="M45.874,21.423a5.137,5.137,0,0,0,1.135-3.629,5.025,5.025,0,0,0-3.266,1.726,4.873,4.873,0,0,0-1.165,3.495,4.139,4.139,0,0,0,3.3-1.591" transform="translate(-24.179 -9.947)"/>
      <path id="Path_396" data-name="Path 396" d="M85.781,50.058H81.146l-1.113,3.356H78.069L82.46,41H84.5l4.389,12.417h-2Zm-4.155-1.549H85.3l-1.81-5.446h-.052Z" transform="translate(-44.36 -22.918)"/>
      <path id="Path_397" data-name="Path 397" d="M114.1,53.033c0,2.813-1.474,4.621-3.7,4.621a3,3,0,0,1-2.791-1.584h-.04v4.484h-1.82V48.5h1.761v1.506h.033a3.131,3.131,0,0,1,2.822-1.6c2.252,0,3.734,1.816,3.734,4.622m-1.87,0c0-1.834-.927-3.04-2.344-3.04-1.388,0-2.324,1.232-2.324,3.04,0,1.823.936,3.045,2.324,3.045,1.416,0,2.344-1.2,2.344-3.045" transform="translate(-60.087 -27.063)"/>
      <path id="Path_398" data-name="Path 398" d="M136.7,53.033c0,2.813-1.474,4.621-3.7,4.621a3,3,0,0,1-2.791-1.584h-.04v4.484h-1.82V48.5h1.761v1.506h.033a3.131,3.131,0,0,1,2.822-1.6c2.252,0,3.734,1.816,3.734,4.622m-1.871,0c0-1.834-.927-3.04-2.344-3.04-1.39,0-2.324,1.232-2.324,3.04,0,1.823.934,3.045,2.324,3.045,1.416,0,2.344-1.2,2.344-3.045" transform="translate(-72.928 -27.063)"/>
      <path id="Path_399" data-name="Path 399" d="M160.165,49.69c.135,1.232,1.305,2.039,2.907,2.039,1.534,0,2.638-.807,2.638-1.919,0-.963-.667-1.54-2.243-1.935l-1.574-.388c-2.234-.553-3.271-1.616-3.271-3.348,0-2.144,1.829-3.615,4.424-3.615,2.571,0,4.332,1.471,4.391,3.615H165.6a2.286,2.286,0,0,0-2.579-1.988c-1.467,0-2.469.758-2.469,1.859,0,.878.639,1.4,2.207,1.792l1.34.335c2.494.6,3.531,1.625,3.531,3.443,0,2.323-1.811,3.778-4.694,3.778-2.7,0-4.517-1.42-4.635-3.668Z" transform="translate(-89.949 -22.655)"/>
      <path id="Path_400" data-name="Path 400" d="M184.9,43.764v2.144h1.687v1.471H184.9v4.99c0,.777.338,1.138,1.08,1.138a5.769,5.769,0,0,0,.6-.044v1.464a4.955,4.955,0,0,1-1.011.085c-1.8,0-2.5-.688-2.5-2.443v-5.19h-1.288V45.908h1.288V43.764Z" transform="translate(-103.294 -24.465)"/>
      <path id="Path_401" data-name="Path 401" d="M195.169,53.011c0-2.848,1.643-4.64,4.205-4.64s4.205,1.792,4.205,4.64-1.627,4.638-4.205,4.638-4.205-1.783-4.205-4.638m6.556,0c0-1.954-.877-3.109-2.351-3.109s-2.352,1.162-2.352,3.109.877,3.105,2.352,3.105,2.351-1.146,2.351-3.105" transform="translate(-110.898 -27.041)"/>
      <path id="Path_402" data-name="Path 402" d="M218.121,48.5h1.735v1.54h.042a2.125,2.125,0,0,1,2.134-1.636,2.776,2.776,0,0,1,.622.069v1.74a2.492,2.492,0,0,0-.816-.113,1.856,1.856,0,0,0-1.9,2.084v5.369h-1.82Z" transform="translate(-123.94 -27.061)"/>
      <path id="Path_403" data-name="Path 403" d="M237.529,54.879c-.246,1.643-1.813,2.772-3.817,2.772-2.579,0-4.18-1.765-4.18-4.6s1.609-4.68,4.1-4.68c2.453,0,4,1.721,4,4.466v.636h-6.261v.113a2.335,2.335,0,0,0,2.385,2.563,2,2,0,0,0,2.047-1.273Zm-6.152-2.7h4.432a2.157,2.157,0,0,0-2.175-2.3,2.269,2.269,0,0,0-2.257,2.3" transform="translate(-130.424 -27.042)"/>
      <path id="Path_404" data-name="Path 404" d="M83,19.8c1.732,0,2.749,1.089,2.749,2.965,0,1.907-1.009,3-2.749,3h-2.11V19.8ZM81.8,24.92h1.1c1.222,0,1.927-.775,1.927-2.146A1.864,1.864,0,0,0,82.9,20.641H81.8Z" transform="translate(-45.965 -11.067)"/>
      <path id="Path_405" data-name="Path 405" d="M94.519,25.259a2.093,2.093,0,1,1,4.159,0c0,1.459-.788,2.34-2.078,2.34a2.05,2.05,0,0,1-2.08-2.34m3.264,0c0-.977-.43-1.547-1.184-1.547s-1.18.57-1.18,1.547.425,1.551,1.18,1.551,1.184-.57,1.184-1.551" transform="translate(-53.707 -12.815)"/>
      <path id="Path_406" data-name="Path 406" d="M110.507,27.623h-.9l-.91-3.317h-.07l-.906,3.317h-.895l-1.215-4.5h.882l.791,3.434h.064l.907-3.434h.835l.907,3.434h.067l.787-3.434h.87Z" transform="translate(-60.008 -12.924)"/>
      <path id="Path_407" data-name="Path 407" d="M122.124,23.009h.837v.715h.066a1.316,1.316,0,0,1,1.315-.8c.985,0,1.525.6,1.525,1.673v2.917H125V24.818c0-.722-.307-1.082-.952-1.082a1.023,1.023,0,0,0-1.052,1.142v2.634h-.87Z" transform="translate(-69.393 -12.814)"/>
      <rect id="Rectangle_288" data-name="Rectangle 288" width="0.87" height="6.261" transform="translate(57.862 8.438)"/>
      <path id="Path_408" data-name="Path 408" d="M138.824,25.259a2.094,2.094,0,1,1,4.16,0,2.095,2.095,0,1,1-4.16,0m3.264,0c0-.977-.43-1.547-1.184-1.547s-1.181.57-1.181,1.547.425,1.551,1.181,1.551,1.184-.57,1.184-1.551" transform="translate(-78.882 -12.815)"/>
      <path id="Path_409" data-name="Path 409" d="M150.58,26.24c0-.811.591-1.278,1.64-1.345l1.194-.069v-.39c0-.474-.309-.745-.9-.745-.485,0-.823.184-.918.5h-.843c.089-.773.8-1.269,1.8-1.269,1.106,0,1.73.561,1.73,1.512v3.077h-.839v-.634h-.067a1.478,1.478,0,0,1-1.326.708,1.342,1.342,0,0,1-1.468-1.347m2.834-.386v-.375l-1.078.069c-.607.042-.88.253-.88.65s.343.642.816.642a1.048,1.048,0,0,0,1.143-.986" transform="translate(-85.562 -12.815)"/>
      <path id="Path_410" data-name="Path 410" d="M161.8,23.138c0-1.423.718-2.323,1.832-2.323a1.444,1.444,0,0,1,1.35.789h.066V19.13h.87v6.262h-.834V24.68h-.07a1.519,1.519,0,0,1-1.383.784c-1.123,0-1.832-.9-1.832-2.326m.9,0c0,.956.44,1.53,1.179,1.53s1.186-.583,1.186-1.526-.458-1.53-1.186-1.53-1.179.579-1.179,1.526" transform="translate(-91.935 -10.694)"/>
      <path id="Path_411" data-name="Path 411" d="M179.669,25.259a2.094,2.094,0,1,1,4.16,0c0,1.459-.79,2.34-2.078,2.34a2.05,2.05,0,0,1-2.082-2.34m3.264,0c0-.977-.43-1.547-1.182-1.547s-1.182.57-1.182,1.547.425,1.551,1.182,1.551,1.182-.57,1.182-1.551" transform="translate(-102.091 -12.815)"/>
      <path id="Path_412" data-name="Path 412" d="M192.006,23.009h.837v.715h.066a1.317,1.317,0,0,1,1.316-.8c.984,0,1.525.6,1.525,1.673v2.917h-.87V24.818c0-.722-.309-1.082-.952-1.082a1.023,1.023,0,0,0-1.052,1.142v2.634h-.87Z" transform="translate(-109.101 -12.814)"/>
      <path id="Path_413" data-name="Path 413" d="M210,20.575v1.143h.955v.747H210v2.316c0,.472.19.678.623.678a2.463,2.463,0,0,0,.331-.021v.742a2.756,2.756,0,0,1-.473.044c-.968,0-1.352-.347-1.352-1.214V22.466h-.7v-.747h.7V20.575Z" transform="translate(-118.432 -11.502)"/>
      <path id="Path_414" data-name="Path 414" d="M217.031,19.132h.863v2.48h.07a1.351,1.351,0,0,1,1.343-.805,1.471,1.471,0,0,1,1.519,1.68v2.906h-.87V22.706c0-.72-.329-1.085-.943-1.085a1.042,1.042,0,0,0-1.111,1.142v2.63h-.87Z" transform="translate(-123.321 -10.695)"/>
      <path id="Path_415" data-name="Path 415" d="M232.375,26.295a1.793,1.793,0,0,1-1.911,1.3c-1.263,0-2.037-.885-2.037-2.326s.789-2.351,2.034-2.351c1.225,0,1.965.855,1.965,2.27v.31h-3.113v.05a1.18,1.18,0,0,0,1.175,1.29,1.051,1.051,0,0,0,1.049-.547Zm-3.061-1.45h2.228a1.077,1.077,0,0,0-1.085-1.167,1.14,1.14,0,0,0-1.142,1.167" transform="translate(-129.797 -12.814)"/>
    </g>
  </g>
</svg>
