<svg xmlns="http://www.w3.org/2000/svg" xmlns:xlink="http://www.w3.org/1999/xlink" width="132.187" height="40" viewBox="0 0 132.187 40">
  <defs>
    <clipPath id="clip-path">
      <rect id="Rectangle_287" data-name="Rectangle 287" width="132.187" height="40" fill="none"/>
    </clipPath>
  </defs>
  <g id="google_playstore" data-name="google playstore" opacity="0.6">
    <g id="Group_382" data-name="Group 382" transform="translate(0 0)" clip-path="url(#clip-path)">
      <path id="Path_381" data-name="Path 381" d="M127.292.8A4.162,4.162,0,0,1,131.4,5V35a4.163,4.163,0,0,1-4.113,4.2H4.9A4.162,4.162,0,0,1,.785,35V5A4.161,4.161,0,0,1,4.9.8Zm0-.8H4.9A4.963,4.963,0,0,0,0,5V35a4.963,4.963,0,0,0,4.9,5H127.292a4.963,4.963,0,0,0,4.9-5V5a4.963,4.963,0,0,0-4.9-5" transform="translate(0 0)"/>
      <path id="Path_382" data-name="Path 382" d="M99.716,18.947a2.733,2.733,0,0,1-.73,2,2.816,2.816,0,0,1-2.158.889,2.932,2.932,0,0,1-2.163-.9,3.248,3.248,0,0,1,0-4.466,2.932,2.932,0,0,1,2.163-.9,2.987,2.987,0,0,1,1.2.251,2.458,2.458,0,0,1,.921.669l-.517.529a1.966,1.966,0,0,0-1.608-.712,2.209,2.209,0,0,0-1.605.666,2.552,2.552,0,0,0,0,3.461,2.305,2.305,0,0,0,3.245,0,1.907,1.907,0,0,0,.493-1.216H96.829v-.721h2.846a2.584,2.584,0,0,1,.042.453" transform="translate(-53.285 -8.703)"/>
      <path id="Path_383" data-name="Path 383" d="M113.472,16.61H110.8v1.9h2.412v.721H110.8v1.9h2.675v.736h-3.431v-6h3.431Z" transform="translate(-62.527 -8.874)"/>
      <path id="Path_384" data-name="Path 384" d="M122.206,21.872h-.756V16.609h-1.64v-.736h4.037v.736h-1.642Z" transform="translate(-68.078 -8.873)"/>
      <rect id="Rectangle_286" data-name="Rectangle 286" width="0.754" height="5.999" transform="translate(58.689 7)"/>
      <path id="Path_385" data-name="Path 385" d="M142.275,21.872h-.756V16.609h-1.64v-.736h4.035v.736h-1.64Z" transform="translate(-79.482 -8.873)"/>
      <path id="Path_386" data-name="Path 386" d="M160.119,20.928a3.005,3.005,0,0,1-4.309,0,3.293,3.293,0,0,1,0-4.449,3,3,0,0,1,4.3,0,3.28,3.28,0,0,1,.005,4.445m-3.751-.5a2.224,2.224,0,0,0,3.191,0,2.595,2.595,0,0,0,0-3.443,2.224,2.224,0,0,0-3.191,0,2.6,2.6,0,0,0,0,3.443" transform="translate(-88.042 -8.703)"/>
      <path id="Path_387" data-name="Path 387" d="M171.384,21.872v-6h.919l2.855,4.668h.033l-.033-1.156V15.873h.756v6h-.787l-2.988-4.893h-.031l.031,1.158v3.735Z" transform="translate(-97.383 -8.873)"/>
      <path id="Path_388" data-name="Path 388" d="M119.6,43.364a4.254,4.254,0,1,0,4.181,4.252,4.148,4.148,0,0,0-4.181-4.252m0,6.83a2.589,2.589,0,1,1,2.35-2.578,2.438,2.438,0,0,1-2.35,2.578m-9.12-6.83a4.254,4.254,0,1,0,4.179,4.252,4.148,4.148,0,0,0-4.179-4.252m0,6.83a2.589,2.589,0,1,1,2.351-2.578,2.438,2.438,0,0,1-2.351,2.578M99.635,44.669v1.8h4.228a3.809,3.809,0,0,1-.962,2.271,4.28,4.28,0,0,1-3.266,1.32,4.8,4.8,0,0,1,0-9.6,4.454,4.454,0,0,1,3.186,1.29l1.246-1.273a6.091,6.091,0,0,0-4.432-1.82,6.6,6.6,0,0,0,0,13.21,5.852,5.852,0,0,0,4.51-1.853,6.63,6.63,0,0,0,1.437-5.348ZM144,46.07a3.883,3.883,0,0,0-3.564-2.705,4.006,4.006,0,0,0-3.929,4.252,4.136,4.136,0,0,0,7.6,2.369l-1.419-.967a2.367,2.367,0,0,1-2.051,1.176,2.117,2.117,0,0,1-2.019-1.289l5.57-2.351Zm-5.679,1.418a2.312,2.312,0,0,1,2.177-2.48,1.609,1.609,0,0,1,1.546.9Zm-4.526,4.125h1.831V39.11h-1.831Zm-3-7.3h-.063a2.867,2.867,0,0,0-2.193-.949,4.262,4.262,0,0,0,0,8.506,2.816,2.816,0,0,0,2.193-.967h.063v.613c0,1.625-.851,2.5-2.224,2.5a2.306,2.306,0,0,1-2.1-1.515l-1.6.678a3.977,3.977,0,0,0,3.692,2.514c2.146,0,3.959-1.291,3.959-4.431V43.623h-1.735Zm-2.1,5.881a2.592,2.592,0,0,1,0-5.155,2.606,2.606,0,0,1,0,5.155M152.57,39.113h-4.377v12.5h1.825V46.875h2.551a3.883,3.883,0,1,0,0-7.762m.047,6.024h-2.6V40.851h2.6a2.143,2.143,0,0,1,0,4.286m11.293-1.8a3.421,3.421,0,0,0-3.261,1.914l1.623.692a1.72,1.72,0,0,1,1.669-.917,1.77,1.77,0,0,1,1.921,1.609v.129a3.984,3.984,0,0,0-1.907-.483c-1.747,0-3.526.981-3.526,2.815a2.85,2.85,0,0,0,3.039,2.751,2.561,2.561,0,0,0,2.329-1.221h.064v.963h1.765V46.8a3.389,3.389,0,0,0-3.716-3.459m-.222,6.851c-.6,0-1.434-.3-1.434-1.061,0-.965,1.04-1.335,1.938-1.335a3.226,3.226,0,0,1,1.669.418,2.23,2.23,0,0,1-2.174,1.978m10.362-6.575-2.094,5.419h-.064l-2.172-5.419h-1.969l3.26,7.574-1.86,4.215h1.906l5.024-11.788Zm-16.457,8h1.827V39.11h-1.827Z" transform="translate(-52.885 -21.612)"/>
      <path id="Path_389" data-name="Path 389" d="M36.737,28.154l3.526-3.636L26.583,16.58a1.907,1.907,0,0,0-1.361-.28Z" transform="translate(-14.332 -9.094)"/>
      <path id="Path_390" data-name="Path 390" d="M22.771,18.261a2.5,2.5,0,0,0-.154.9v22.1a2.487,2.487,0,0,0,.151.89L34.362,30.191Z" transform="translate(-12.851 -10.208)"/>
      <path id="Path_391" data-name="Path 391" d="M36.726,47.406,25.2,59.292a1.888,1.888,0,0,0,1.371-.276l13.7-7.956Z" transform="translate(-14.319 -26.501)"/>
      <path id="Path_392" data-name="Path 392" d="M62,38.951l-4.254-2.469-3.775,3.895,3.8,3.914L62,41.837c1.367-.793,1.367-2.092,0-2.886" transform="translate(-30.664 -20.394)"/>
    </g>
  </g>
</svg>
