<svg id="Component_5_2" data-name="Component 5 – 2" xmlns="http://www.w3.org/2000/svg" xmlns:xlink="http://www.w3.org/1999/xlink" width="516" height="64" viewBox="0 0 516 64">
  <defs>
    <clipPath id="clip-path">
      <rect id="Rectangle_19" data-name="Rectangle 19" width="516" height="64" fill="none"/>
    </clipPath>
  </defs>
  <g id="Group_21" data-name="Group 21" clip-path="url(#clip-path)">
    <path id="Path_3" data-name="Path 3" d="M704.458,49.827h-16.04v-.822c.181-.024.366-.043.548-.075A3.153,3.153,0,0,0,691.825,46a11.719,11.719,0,0,0,.115-1.641q.01-10.6,0-21.2a7.216,7.216,0,0,0-.548-3,4.24,4.24,0,0,0-3.165-2.629,3.064,3.064,0,0,0-2.79.754,6.6,6.6,0,0,0-2.324,5.045c-.016,4.75,0,9.5,0,14.251,0,2.244-.007,4.488,0,6.731a12,12,0,0,0,.109,1.569,3.29,3.29,0,0,0,2.893,3.01c.234.043.471.072.762.116v.771H670.751v-.755c.346-.059.693-.115,1.039-.179a3.956,3.956,0,0,0,3.416-4.054c.013-3.175,0-6.35,0-9.525q0-14.787-.009-29.576a8.328,8.328,0,0,0-.226-2.051A3.638,3.638,0,0,0,671.824.8c-.329-.055-.66-.1-1.055-.161-.017-.178-.037-.379-.062-.626H683.2c0,.3,0,.585,0,.864-.046,4.3-.108,8.593-.129,12.889-.008,1.359.086,2.719.141,4.077.01.23.058.459.112.877l.56-.715a8.691,8.691,0,0,1,4.884-3.313,9.649,9.649,0,0,1,6.624.741,6.847,6.847,0,0,1,3.025,3.053,12.926,12.926,0,0,1,1.29,4.294,45.391,45.391,0,0,1,.083,9.076c-.174,2.977-.35,5.955-.463,8.934a15.212,15.212,0,0,0,.39,3.981,8.911,8.911,0,0,0,.256.892,4.362,4.362,0,0,0,4.484,3.3Z" transform="translate(-361.668 -0.01)"/>
    <path id="Path_4" data-name="Path 4" d="M84.77,49.018v.753H68.612v-.755c.417-.071.822-.11,1.209-.211a4.121,4.121,0,0,0,3.247-4.091Q73.04,25.056,73.044,5.4a6.985,6.985,0,0,0-.31-2.037A3.584,3.584,0,0,0,69.809.821c-.373-.075-.754-.113-1.193-.178-.017-.184-.035-.384-.057-.63H80.932c.008.273.025.548.024.823-.006,4.822-.022,9.645-.016,14.466,0,.93.08,1.86.133,2.788a4.618,4.618,0,0,0,.121.583c.24-.308.41-.525.579-.742a8.364,8.364,0,0,1,5.534-3.395,9.734,9.734,0,0,1,6.052.973,7.21,7.21,0,0,1,3.189,3.563A15.274,15.274,0,0,1,97.7,23.925a52.263,52.263,0,0,1-.084,8.295c-.181,2.881-.339,5.765-.449,8.649a14.208,14.208,0,0,0,.4,3.978,9.135,9.135,0,0,0,.583,1.684,3.92,3.92,0,0,0,3.127,2.338c.306.044.611.093.964.146v.769h-16v-.778c.178-.024.338-.041.5-.069a3.266,3.266,0,0,0,2.944-3.031,11.529,11.529,0,0,0,.109-1.569q.012-10.564.006-21.127a6.826,6.826,0,0,0-.806-3.514,4.252,4.252,0,0,0-2.964-2.162,2.962,2.962,0,0,0-2.725.723A6.63,6.63,0,0,0,80.973,23.3c-.019,4.011-.006,8.021-.006,12.032,0,3.008-.005,6.015,0,9.023a11.555,11.555,0,0,0,.1,1.5A3.307,3.307,0,0,0,84.012,48.9c.233.041.466.071.758.115" transform="translate(-36.969 -0.008)"/>
    <path id="Path_5" data-name="Path 5" d="M5.086,53.055V52.31c.61-.119,1.2-.21,1.77-.351a6.771,6.771,0,0,0,2.611-1.293,4.846,4.846,0,0,0,1.958-4.018q-.034-16.865-.012-33.733,0-2.256,0-4.511c0-.852-.093-.943-.968-.89A6.332,6.332,0,0,0,6.8,9.027a11.318,11.318,0,0,0-2.591,3.128,24.426,24.426,0,0,0-2.573,6.724A31.321,31.321,0,0,0,.81,25.085H.145C0,24.509-.056,7.344.073,6.229c.5-.155,30.095-.223,31.484-.066V25.076l-.627.064a2.634,2.634,0,0,1-.061-.318,31.233,31.233,0,0,0-1.4-7.94,21.465,21.465,0,0,0-2.337-5.208,10.382,10.382,0,0,0-2.744-2.99,6.085,6.085,0,0,0-3.111-1.167c-.91-.06-1.007.034-1.007.92q0,7.02,0,14.038c0,8.045.02,16.091-.013,24.136A5.026,5.026,0,0,0,22.895,51.2a8.007,8.007,0,0,0,3.644,1.058v.792Z" transform="translate(0 -3.274)"/>
    <path id="Path_6" data-name="Path 6" d="M229.5,53.125v-.736c.633-.119,1.268-.2,1.883-.363a6.47,6.47,0,0,0,2.914-1.611,4.739,4.739,0,0,0,1.486-3.591q-.022-14.217-.008-28.435,0-4.942,0-9.885c0-.866-.093-.96-.945-.914a6.026,6.026,0,0,0-3.18,1.18,9.69,9.69,0,0,0-2.371,2.468,21.7,21.7,0,0,0-3,6.926,29.082,29.082,0,0,0-1.014,6.707c0,.092-.023.184-.039.308h-.56c-.164-.506-.206-18.078-.041-18.962h31.29V25.105a.631.631,0,0,1-.188.089c-.136.014-.276,0-.44,0a2.142,2.142,0,0,1-.056-.3,31.963,31.963,0,0,0-1.253-7.608,22.275,22.275,0,0,0-2.15-5.135,10.861,10.861,0,0,0-2.775-3.248A6.225,6.225,0,0,0,245.778,7.6c-.984-.078-1.089.027-1.089.993q0,14.683,0,29.366c0,2.889.029,5.779-.01,8.667a5.056,5.056,0,0,0,2.736,4.689,8.023,8.023,0,0,0,3.526,1.022v.79Z" transform="translate(-121.071 -3.352)"/>
    <path id="Path_7" data-name="Path 7" d="M356.9,48.993a2.543,2.543,0,0,1,.044.309c0,.142-.017.283-.029.468H339.9c-.012-.124-.03-.236-.032-.348s.009-.235.017-.395c.3-.057.6-.117.9-.168a3.915,3.915,0,0,0,2.826-1.994A6.443,6.443,0,0,0,344.435,44c.024-.333.018-.668.018-1q0-18.047-.01-36.094a16.35,16.35,0,0,0-.255-3.127A3.388,3.388,0,0,0,340.939.772c-.329-.051-.658-.089-1.029-.14V0h12.425c.01.3.027.6.028.9q0,13.785,0,27.571,0,7.449,0,14.9a6.4,6.4,0,0,0,.521,2.719,4.557,4.557,0,0,0,3.665,2.854c.114.015.227.032.355.051" transform="translate(-183.267)"/>
    <path id="Path_8" data-name="Path 8" d="M490.005,31.739V31.11h12.757v2.759c.312-.253.488-.4.668-.544.786-.622,1.548-1.279,2.364-1.858a6.9,6.9,0,0,1,4.71-1.391,7.782,7.782,0,0,1,6.154,3.562,5.207,5.207,0,0,1-.733,6.686,4.14,4.14,0,0,1-3.94,1.181,5.1,5.1,0,0,1-4.274-3.647,4.717,4.717,0,0,1,.145-2.886,1.735,1.735,0,0,0-.048-1.7,2.582,2.582,0,0,0-3.406,1.1,9.084,9.084,0,0,0-1.38,3.878,22.843,22.843,0,0,0-.253,3.205c-.023,6.23-.011,12.46-.011,18.691a4.64,4.64,0,0,0,4.2,5c.093.017.188.028.332.049v.784H490.006v-.76c.207-.036.413-.075.618-.106a4.688,4.688,0,0,0,3.931-4.539c.006-.19.006-.381.006-.572q0-11.279,0-22.559a7.382,7.382,0,0,0-.331-2.4,4.364,4.364,0,0,0-3.791-3.243l-.438-.059" transform="translate(-264.227 -16.2)"/>
    <path id="Path_9" data-name="Path 9" d="M637.479,40.828a19.47,19.47,0,0,0-3.058-6.427,9.936,9.936,0,0,0-4.044-3.336,7.1,7.1,0,0,0-7.737.953c-.556.448-1.062.96-1.594,1.439-.11.1-.235.18-.459.35V31.27H607.778v.61c.257.053.485.111.717.145a4.8,4.8,0,0,1,3.857,4.673q-.055,19.412-.008,38.823a3.356,3.356,0,0,1-1.146,2.6,5.332,5.332,0,0,1-2.3,1.254c-.41.107-.832.168-1.261.252-.018.264-.033.5-.049.737h17.932v-.7c-.808-.153-1.549-.231-2.25-.441a4.049,4.049,0,0,1-3.166-4.228c-.013-3.748,0-7.5,0-11.246a5.73,5.73,0,0,1,.065-.587c.725.573,1.363,1.11,2.035,1.6a6.769,6.769,0,0,0,7.923.312,10.646,10.646,0,0,0,3.095-2.74,25.321,25.321,0,0,0,5.193-13.58,21.472,21.472,0,0,0-.928-7.92m-6.985,10.9a29.488,29.488,0,0,1-1.253,8.107,13.688,13.688,0,0,1-1.068,2.49,5.89,5.89,0,0,1-1.316,1.581,3.174,3.174,0,0,1-4.5-.346,6.575,6.575,0,0,1-1.3-2.367,20.415,20.415,0,0,1-.99-5.691c-.1-2.239-.126-4.483-.173-6.237.063-2.709.082-4.929.177-7.146a23.67,23.67,0,0,1,.984-6.129,8.582,8.582,0,0,1,1.234-2.567,4.065,4.065,0,0,1,2.492-1.678,2.871,2.871,0,0,1,3.015,1.022,8.676,8.676,0,0,1,1.158,1.959,17.461,17.461,0,0,1,1.155,4.708,72.843,72.843,0,0,1,.389,12.293" transform="translate(-327.628 -16.36)"/>
    <path id="Path_10" data-name="Path 10" d="M454.472,55.526a8.808,8.808,0,0,0-4.558-6.505,13.312,13.312,0,0,0-4.151-1.513c-2.207-.392-4.435-.667-6.648-1.022a26.766,26.766,0,0,1-2.8-.583,3.122,3.122,0,0,1-1.174-.65,1.114,1.114,0,0,1-.028-1.782c.168-.169.348-.328.505-.508a1.128,1.128,0,0,1,.8-.382c2.041-.217,4.085-.423,6.117-.707a16.043,16.043,0,0,0,5.185-1.559,8.053,8.053,0,0,0,4.01-4.3,12.577,12.577,0,0,0,.51-7.8,10.539,10.539,0,0,0-5.758-6.939c-.241-.124-.483-.245-.845-.428.373-.134.612-.222.853-.306a11.121,11.121,0,0,0,3.64-1.948,4.253,4.253,0,0,0,1.6-2.561,5.769,5.769,0,0,0-.678-3.872,3.511,3.511,0,0,0-2.271-1.733,4.836,4.836,0,0,0-3.154.3,3.23,3.23,0,0,0-1.993,2.456,3.7,3.7,0,0,0,1.434,3.935c.422.309.847.615,1.272.923a1.388,1.388,0,0,1-.885,1.287,12.4,12.4,0,0,1-1.653.67c-1.551.372-3.116.7-4.684.992A26.061,26.061,0,0,0,434.812,22a7.254,7.254,0,0,0-4.681,5.041,15.641,15.641,0,0,0-.552,5.315,9.255,9.255,0,0,0,4.171,7.391c.646.447,1.344.818,2.019,1.221.176.106.357.2.627.355-.27.132-.452.223-.635.311-.9.433-1.822.838-2.707,1.3a8.587,8.587,0,0,0-2.389,1.808,4.343,4.343,0,0,0-.836,4.908,5.334,5.334,0,0,0,1.866,2.13,9.83,9.83,0,0,0,3.961,1.567,3.322,3.322,0,0,1,.449.166c-.443.239-.767.436-1.108.6-.821.384-1.662.726-2.472,1.132a20.4,20.4,0,0,0-2.245,1.255,4.915,4.915,0,0,0-2.2,3.3,5.848,5.848,0,0,0,1.424,5.051,10.224,10.224,0,0,0,2.783,2.228,18.9,18.9,0,0,0,5.484,2.018l2.088.442h2.583c.368-.094.731-.212,1.1-.277a15.113,15.113,0,0,0,6.584-2.82,10.878,10.878,0,0,0,4.271-6.091,11.453,11.453,0,0,0,.066-4.832m-17.74-24.237a21.616,21.616,0,0,1,.542-5.68,7.657,7.657,0,0,1,1.038-2.5,3.157,3.157,0,0,1,5.4-.089,8.67,8.67,0,0,1,1.413,3.714,24.694,24.694,0,0,1-.514,10.845,8.874,8.874,0,0,1-.942,2.151,2.752,2.752,0,0,1-4.044.838,4.312,4.312,0,0,1-1.5-1.695,10.806,10.806,0,0,1-1.127-3.525c-.11-.682-.206-1.37-.249-2.059-.042-.665-.009-1.336-.009-2m13.4,33.24a8.31,8.31,0,0,1-2.8,2.4,13.291,13.291,0,0,1-5.664,1.6,8.666,8.666,0,0,1-2.963-.4,12.575,12.575,0,0,1-4.895-2.583,4.754,4.754,0,0,1-1.92-3.539,7.268,7.268,0,0,1,2.405-5.683,8.341,8.341,0,0,1,5.195-2.125c.356-.024.716,0,1.074,0a16.023,16.023,0,0,1,6.406,1.278,8.457,8.457,0,0,1,2.4,1.526,5.628,5.628,0,0,1,.76,7.527" transform="translate(-230.781 -5.546)"/>
    <path id="Path_11" data-name="Path 11" d="M579.137,59.762a3.542,3.542,0,0,1-1.875,2.22,2.149,2.149,0,0,1-3.019-1.046,3.077,3.077,0,0,1-.311-.872,16.213,16.213,0,0,1-.239-2.27c-.019-6.444-.011-12.89-.013-19.335,0-.524.005-1.051-.034-1.573a8.311,8.311,0,0,0-2.519-5.538,9.752,9.752,0,0,0-4.342-2.4,15.066,15.066,0,0,0-7.1-.075,14.42,14.42,0,0,0-5.759,2.427,7.381,7.381,0,0,0-3.178,5.223,5.044,5.044,0,0,0,6.116,5.618,4.636,4.636,0,0,0,3.6-4.019,4.529,4.529,0,0,0-1.95-4.747A1.645,1.645,0,0,1,558.3,30.7a4.117,4.117,0,0,1,1.807-.978,3.945,3.945,0,0,1,5,2.207,8.17,8.17,0,0,1,.509,1.409,14.88,14.88,0,0,1,.394,5.115,7.123,7.123,0,0,1-4.1,6.125,15.12,15.12,0,0,1-1.563.708c-1.206.448-2.428.856-3.642,1.284a15.5,15.5,0,0,0-4.057,1.931,6.5,6.5,0,0,0-2.667,4.022,12.244,12.244,0,0,0,1.167,8.4,7.427,7.427,0,0,0,2.425,2.783,8.551,8.551,0,0,0,8.657.62,6.592,6.592,0,0,0,3.695-3.7c.01-.024.069-.029.139-.054.183.351.357.714.554,1.063a6.567,6.567,0,0,0,4.044,3.309,8.337,8.337,0,0,0,3.835.066,6.484,6.484,0,0,0,5.367-4.763,3.967,3.967,0,0,0,.077-.483ZM565.866,51.21c0,1.812.007,3.624,0,5.436a7.874,7.874,0,0,1-.374,2.606,3.806,3.806,0,0,1-4.3,2.647,2.843,2.843,0,0,1-1.8-1.07,7.35,7.35,0,0,1-1.411-2.862,11.854,11.854,0,0,1-.271-5.656,7.563,7.563,0,0,1,1.384-3.108,22.978,22.978,0,0,1,3.938-4.137,9.952,9.952,0,0,1,1.885-1.133c.465-.224.711-.074.852.429a4.328,4.328,0,0,1,.146,1.126c.014,1.908.006,3.815.006,5.723Z" transform="translate(-296.417 -15.36)"/>
    <path id="Path_12" data-name="Path 12" d="M314.818,42.69a17.059,17.059,0,0,0-3.212-7.111,9.174,9.174,0,0,0-10.321-3.19,10.939,10.939,0,0,0-5.535,4.141,21.151,21.151,0,0,0-4.12,16.336,20.607,20.607,0,0,0,3.972,9.4,12.1,12.1,0,0,0,4.839,3.932,8.648,8.648,0,0,0,6.01.512A8.777,8.777,0,0,0,310.514,64a17.553,17.553,0,0,0,4.28-9.665,14.463,14.463,0,0,0,.011-1.844h-.7c-.2,1.326-.318,2.563-.573,3.773A15.422,15.422,0,0,1,310.7,62.7a6.968,6.968,0,0,1-3.067,2.4c-2.46.9-4.735.376-6.2-1.911a13.4,13.4,0,0,1-1.235-2.569,21.214,21.214,0,0,1-1.125-5.741c-.118-1.5-.15-3-.171-4.506-.014-1.049.062-1.1,1.085-1.124,1.242-.024,2.485-.032,3.729-.033q5.164-.007,10.328,0c.755,0,.857-.05,1.053-.777a5.8,5.8,0,0,0,.188-1.338,18.058,18.058,0,0,0-.465-4.4m-8.631,5.133h-2.65v.026h-3.08c-1.112,0-1.4-.2-1.433-1.29-.043-1.308-.033-2.622.043-3.928a19.489,19.489,0,0,1,.847-4.99,14.618,14.618,0,0,1,1.147-2.6,3.888,3.888,0,0,1,1.178-1.219,2.573,2.573,0,0,1,3.442.418,5.484,5.484,0,0,1,1.108,1.9,14.106,14.106,0,0,1,.854,3.97c.139,2,.214,4,.262,6,.039,1.65-.058,1.712-1.718,1.712" transform="translate(-157.103 -17.2)"/>
    <path id="Path_13" data-name="Path 13" d="M382.7,49.24q6.417-.019,12.834-.026c.406,0,.814-.023,1.219.006a.632.632,0,0,0,.744-.512,6.732,6.732,0,0,0,.277-1.534,21.672,21.672,0,0,0-.178-2.852,18.71,18.71,0,0,0-2.445-7.2,11.506,11.506,0,0,0-3.239-3.591,9.359,9.359,0,0,0-10.753.159,13.685,13.685,0,0,0-4.03,4.408,21.5,21.5,0,0,0-3.04,14.543,21.071,21.071,0,0,0,3.835,9.452,12.086,12.086,0,0,0,5.034,4.131,8.7,8.7,0,0,0,6.014.483,8.91,8.91,0,0,0,4.152-2.823,17.655,17.655,0,0,0,4.168-9.49,4.838,4.838,0,0,0-.008-1.886h-.814c-.029.285-.044.521-.077.756-.164,1.155-.263,2.325-.515,3.462a14.935,14.935,0,0,1-2.572,5.852,7.079,7.079,0,0,1-3.084,2.484A5,5,0,0,1,383.9,63.25a10.975,10.975,0,0,1-1.355-2.75,23.409,23.409,0,0,1-1.126-5.958,32.489,32.489,0,0,1,.048-5.218c.438-.032.836-.083,1.234-.085m-.118-12.177a6.7,6.7,0,0,1,1.611-2.836,2.673,2.673,0,0,1,4.1.167,5,5,0,0,1,.847,1.4,16.884,16.884,0,0,1,.736,2.459,31.966,31.966,0,0,1,.526,6.336,24.155,24.155,0,0,1-.077,2.5c-.056.64-.186.731-.824.734q-3.333.017-6.667,0a10.211,10.211,0,0,1-1.179-.144,11.725,11.725,0,0,1-.227-1.431,26.421,26.421,0,0,1,1.155-9.181" transform="translate(-201.584 -17.205)"/>
    <path id="Path_14" data-name="Path 14" d="M160.945,41.893a16.145,16.145,0,0,0-3.28-6.688A9.154,9.154,0,0,0,147.6,32.4a10.681,10.681,0,0,0-5.205,3.775,21.177,21.177,0,0,0-4.391,16.74,20.672,20.672,0,0,0,3.571,8.886,12.448,12.448,0,0,0,4.857,4.242,8.819,8.819,0,0,0,6.476.642,9.129,9.129,0,0,0,4.455-3.239,17.786,17.786,0,0,0,3.716-9.016,15.536,15.536,0,0,0,.012-1.941,3.49,3.49,0,0,0-.37-.034,3.248,3.248,0,0,0-.359.039c-.134,1.092-.214,2.115-.389,3.121a16.414,16.414,0,0,1-2.6,6.681,7.388,7.388,0,0,1-2.973,2.626,5.011,5.011,0,0,1-6.673-1.764,11.629,11.629,0,0,1-1.237-2.488,26.485,26.485,0,0,1-1.226-10.451c.017-.282.062-.562.1-.9.355-.032.683-.084,1.012-.086q3.837-.026,7.674-.032c2.1,0,4.208,0,6.312,0,.7,0,.816-.042.99-.668a6.107,6.107,0,0,0,.22-1.476,18.821,18.821,0,0,0-.629-5.172m-6.7,4.784c-.06.976-.236,1.145-1.223,1.147-1.959,0-3.918.012-5.878,0-.52,0-1.04-.077-1.668-.128a20.464,20.464,0,0,1-.225-2.222,26.4,26.4,0,0,1,1.092-8.047,14.919,14.919,0,0,1,1.121-2.461,3.1,3.1,0,0,1,1.514-1.372,2.528,2.528,0,0,1,2.9.546,5.323,5.323,0,0,1,1.219,2,16.5,16.5,0,0,1,.977,4.818c.117,1.76.125,3.527.179,5.29,0,.143,0,.287-.009.429" transform="translate(-74.266 -17.201)"/>
    <path id="Path_15" data-name="Path 15" d="M792.639,66.841q-8.528,0-11.608-5.177T779.5,49.2a24.179,24.179,0,0,1,6.828-12.415q5.31-5.25,13.84-5.251t11.592,5.251q3.067,5.253,1.548,12.415a24.031,24.031,0,0,1-6.844,12.461q-5.3,5.176-13.824,5.177M804.232,49.2q1.064-4.977-.41-7.665t-5.266-2.686a8.578,8.578,0,0,0-6.4,2.686,15.332,15.332,0,0,0-3.672,7.665q-1.064,4.979.409,7.68t5.265,2.7a8.559,8.559,0,0,0,6.4-2.7,15.439,15.439,0,0,0,3.671-7.68" transform="translate(-420.052 -17.002)" fill="#808485"/>
    <path id="Path_16" data-name="Path 16" d="M884.013,43.725l-4.735,22.281h-8.861l4.248-20.126a8.341,8.341,0,0,0,.152-4.007q-.729-2.55-4.31-2.55a7.7,7.7,0,0,0-6.828,3.734,14.812,14.812,0,0,0-1.912,5.039l-3.794,17.91h-8.62l7.011-33.028h8.346l-1.032,4.827a20.083,20.083,0,0,1,3.946-3.674,12.943,12.943,0,0,1,7.192-2q5.128,0,7.815,2.687t1.381,8.909" transform="translate(-458 -17.322)" fill="#808485"/>
    <path id="Path_17" data-name="Path 17" d="M930.548,53.294H921.9L931.4,8.55h8.65Z" transform="translate(-497.119 -4.609)" fill="#808485"/>
    <path id="Path_18" data-name="Path 18" d="M956.139,19.886h8.771L957.9,52.974h-8.77Zm9.62-3.946h-8.77l1.7-7.984h8.771Z" transform="translate(-511.801 -4.289)" fill="#808485"/>
    <path id="Path_19" data-name="Path 19" d="M1011.016,43.725l-4.734,22.281H997.42l4.248-20.126a8.348,8.348,0,0,0,.152-4.007q-.729-2.55-4.309-2.55a7.7,7.7,0,0,0-6.829,3.734A14.826,14.826,0,0,0,988.77,48.1l-3.794,17.91h-8.618l7.01-33.028h8.346l-1.032,4.827a20.117,20.117,0,0,1,3.945-3.674,12.944,12.944,0,0,1,7.192-2q5.129,0,7.815,2.687t1.382,8.909" transform="translate(-526.484 -17.322)" fill="#808485"/>
    <path id="Path_20" data-name="Path 20" d="M1080.491,38.367a13.98,13.98,0,0,1,1.063,6.83,42.5,42.5,0,0,1-1.093,6.556H1057.82q-.881,4.979,1.639,6.982a6.164,6.164,0,0,0,4.036,1.245,7.525,7.525,0,0,0,4.673-1.518,10.534,10.534,0,0,0,2.095-2.276h8.83a14.574,14.574,0,0,1-4.339,5.98,18.47,18.47,0,0,1-12.929,4.826,13.7,13.7,0,0,1-10.273-4.068q-3.961-4.068-2.018-13.235,1.822-8.591,7.148-13.175a18.269,18.269,0,0,1,12.275-4.583,15.294,15.294,0,0,1,7.118,1.548,9.488,9.488,0,0,1,4.416,4.888m-21.244,7.679h13.445q.515-3.43-.988-5.206a5.275,5.275,0,0,0-4.263-1.774,7.19,7.19,0,0,0-5.053,1.881,12,12,0,0,0-3.141,5.1" transform="translate(-565.6 -17.215)" fill="#808485"/>
  </g>
</svg>
