<svg id="collections_black_24dp" xmlns="http://www.w3.org/2000/svg" viewBox="0 0 48 48">
  <path id="Path_412" data-name="Path 412" d="M0,0H48V48H0Z" fill="none"/>
  <path id="Path_413" data-name="Path 413" d="M41.933,29.953V5.993A4.005,4.005,0,0,0,37.94,2H13.98A4.005,4.005,0,0,0,9.987,5.993v23.96a4.005,4.005,0,0,0,3.993,3.993H37.94A4.005,4.005,0,0,0,41.933,29.953ZM19.97,21.967l4.053,5.411,5.93-7.408,7.987,9.983H13.98ZM2,9.987V37.94a4.005,4.005,0,0,0,3.993,3.993H33.947V37.94H5.993V9.987Z" transform="translate(2.033 2.033)" fill="#fff"/>
</svg>
