<svg id="quote_v3" xmlns="http://www.w3.org/2000/svg" width="32" height="56.889" viewBox="0 0 32 56.889">
  <path id="Path_416" data-name="Path 416" d="M16.8,56.889A15.081,15.081,0,0,1,4.622,51.378C1.511,47.644,0,42.844,0,36.889A38.17,38.17,0,0,1,6.756,15.111,43.936,43.936,0,0,1,23.556,0L24.8,2.489a32.127,32.127,0,0,0-7.556,8.533,36.734,36.734,0,0,0-4.711,12.889L16.8,24.978A21.447,21.447,0,0,1,28,31.111a15.667,15.667,0,0,1,4,10.756,14.267,14.267,0,0,1-4.444,10.844A15.113,15.113,0,0,1,16.8,56.889Z" fill="#b70000"/>
</svg>
